<?xml version="1.0" encoding="utf-8"?>
<!-- Generator: Adobe Illustrator 25.1.0, SVG Export Plug-In . SVG Version: 6.00 Build 0)  -->
<svg version="1.1" id="Layer_1" xmlns="http://www.w3.org/2000/svg" xmlns:xlink="http://www.w3.org/1999/xlink" x="0px" y="0px"
	 viewBox="0 0 720 720" style="enable-background:new 0 0 720 720;" xml:space="preserve">
<style type="text/css">
	.st0{fill:#DCD9C6;}
</style>
<g>
	<path class="st0" d="M203.88,379.18c3.27-0.29,11.54,1.64,12.51,2.38c0.96,0.74,1.85,2.09-1.57,6.4
		c-3.42,4.32-2.9,16.01-2.01,19.88c0.89,3.87-0.08,6.85-1.93,8.56c-1.86,1.72-10.72-9.53-13.04-13.92c-2.3-4.39-5.66-1.56-5.35,0.3
		c0.29,1.85,4.46,3.87,5.28,5.88c0.81,2.01-1.41,4.39,0.89,5.51c2.3,1.12,18.68,15.33,21.51,21.58c2.83,6.25-0.52,7.45-0.52,7.45
		s-3.72,4.69-6.25,9.01c-2.53,4.31-5.36,6.69-8.04,8.93c-2.69,2.23-5.21-0.97-5.21-0.97s-9.61-13.62-11.69-16.53
		c-2.08-2.9-4.23-0.6-2.82-0.23c1.41,0.37,11.91,16.6,13.55,19.88c1.64,3.27-3.65,6.03-4.62,7.15c-0.96,1.12,0.3,3.06,3.43,11.32
		c3.13,8.26-8.12,15.04-8.12,15.04c-6.4,7.6-9.68,5.21-18.53,9.09c-8.86,3.86-12.65,0.37-13.25-3.95c-0.6-4.31-3.35-3.27-5.14-3.5
		c-1.79-0.23-3.95-2.53-8.12-5.66c-4.17-3.13-3.13-4.62-3.13-4.62l1.12-19.43c0,0-0.3-2.23,2.01-0.37c2.3,1.86,3.42,0,3.42,0
		s8.19-19.06,17.5-21.97c9.3-2.9,9.53-5.14,9.46-8.78c-0.08-3.54,3.98-2.03,4.22-1.94c-0.18-0.3-3.89-6.53-5.65-11.68
		c-1.78-5.28,3.5-11.16,7.66-14c4.17-2.82,3.29-9.38,3.29-9.38l4.17-1.33l-0.08-5.07c2.98-1.12,6.48-8.56,6.33-11.09
		c-0.15-2.54,3.05-3.95,5.21-4.92C202.53,377.25,200.59,379.47,203.88,379.18z"/>
	<path class="st0" d="M243.59,369.06c-2.02,4.8-2.96,8-1.51,8.91c1.45,0.92,4.64-0.09,6.14,1.59c1.51,1.68-6.86,5.19-6.86,5.19
		s-17.98,11.5-22.61,11.56s-4.02,0.67-3.41-1.34c0.62-2.01,1.18-5.14,3.02-7.76c0,0,3.19-1.12,6.31-6.19
		c3.13-5.08,8.48-6.69,8.48-6.69l7.37-6.6C240.52,367.71,245.6,364.25,243.59,369.06z"/>
	<path class="st0" d="M257.39,342.4c4.99,1.57,11.1,3.72,12.36,5.59c1.26,1.86,8.26,2.08,8.78,4.69c0.53,2.61-2.9,5.36-6.63,7.82
		c-3.71,2.45-5.95,7.37-5.95,7.37s-7.29,8.26-13.62,7.44c-6.33-0.82-2.38-4.47-1.04-6.03c1.33-1.57,14.36-9.98,14.52-13.55
		c0.15-3.58-0.02-3.58-2.1-3.8c-2.08-0.23-3.04-0.37-3.04-0.37l-4.62-5.95C256.06,345.61,252.42,340.85,257.39,342.4z"/>
	<path class="st0" d="M243.87,338.46c3.91,0,7.65,4.52,9.71,9.76c2.07,5.25,3.84,5.37,2.01,7.93c0,0-7.93,12.01-7.98,5.14
		c-0.06-6.86,0.05-9.65-2.79-14.46C241.97,342.03,239.96,338.46,243.87,338.46z"/>
	<path class="st0" d="M253.81,332.26c6.48,2.18,9.91,7.66,9.91,7.66c-2.71,1.89-20.35-8.26-20.35-8.26S247.33,330.08,253.81,332.26z
		"/>
	<path class="st0" d="M241.97,352.47c0,0,2.46,7.2-2.57,11.28c-5.02,4.08-8.93,4.97-8.15,0
		C232.03,358.78,237.16,348.62,241.97,352.47z"/>
	<path class="st0" d="M234.06,337.49c2.27,0.07,3.06,2.66,3.06,2.66c-0.78,4.63-5.07,1.22-5.45,0.25
		C231.27,339.42,231.79,337.42,234.06,337.49z"/>
	<path class="st0" d="M233.13,346.87c2.35,2.42,1.94,3.13-1.19,4.74c0,0-3.54,0.43-4.28,10.11c-0.74,9.67-0.44,11.65-4.06,12.8
		c-3.61,1.16-2.64-4.54-2.28-8.6c0.35-4.06,2.51-7.11,4.56-15.67C227.92,341.7,230.78,344.45,233.13,346.87z"/>
	<path class="st0" d="M218.63,315.18c-1.62,5.81-1.17,17.7,5.03,21.78c6.19,4.08-0.62,8.54-0.62,8.7c0,0.17-1.84,2.23-1.28,6.54
		c0.56,4.29-2.62,10.11-2.62,10.11s-0.17,5.92-0.62,9.49c-0.45,3.58-4.8-3.07-4.8-3.07s-1.51-9.49-6.98-14.12
		c0,0-3.69-3.35-1.28-5.3c2.4-1.96,2.23-0.39,4.64,1.28c2.4,1.68,7.59,5.02,8.15-2.63c0.56-7.65-6.36-13.79-6.36-13.79h-1.68
		l-0.73-1.95c0,0-7.09-5.59-9.61-6.09c-2.51-0.51-6.08,0.27-6.47-1.18c-0.39-1.45,21.89-12.01,21.89-12.01
		S220.26,309.37,218.63,315.18z"/>
	<path class="st0" d="M197.3,352.8c0,0,1.45,0.34,4.03,3.02c2.57,2.68,4.52,7.6,4.52,7.6s6.53,4.01,6.98,10.55c0,0-5.86,0.89-8.15,0
		c-2.28-0.89-7.31,1.28-9.26,3.41c-1.96,2.12-2.9,5.36-4.58,8.26c-1.68,2.9-3.13,9.71-7.15,5.41c-4.03-4.29-7.43-8.93-7.43-8.93
		s-3.74-4.79-0.73-4.16c3.01,0.64,4.2,5.11,5.92,3.76c1.73-1.34,2.23-1.51-2.29-5.53c-4.52-4.02-20.44-14.85-24.68-16.24
		c0,0-2.12-2.63,1.24-2.79c3.34-0.17,12-1.24,21.04,3.23c9.05,4.47,11.56,4.8,11.56,4.8s0.45,3.58,2.73,3.07
		c2.29-0.5,3.74-3.01,1.18-5.47c-2.57-2.46-9.49-4.8-12.57-5.47c-3.07-0.67-17.48-6.15-13.34-8.76c4.14-2.63,13.57,0.94,16.19-0.68
		C185.14,346.28,187.87,351.02,197.3,352.8z"/>
	<path class="st0" d="M202.95,330.31c2.57,2.16,3.9,3.71,3.9,3.71l1.83,0.78l0.44,1.9c0,0,2.23,0.78,3.21,3.05
		c0.96,2.27,2.49,7,1.6,8.38c-0.89,1.37-3.95-0.56-5.14-1.38c-1.2-0.81-12.8-6.21-17.16-7.56c0,0-12.43-4.27-13.1-5.88
		c-0.68-1.6,1.41-2.12,6.1-3.38C189.32,328.67,200.38,328.15,202.95,330.31z"/>
	<path class="st0" d="M217.65,307.2c-3.06,4.69-17.57,8.7-17.57,8.7s-6.55,4.1-12.35,5.44c-5.81,1.33-4.55,3.71-4.4,4.91
		c0.14,1.19-3.5,3.21-8.04,3.05c-4.54-0.15-4.17,1.8-4.17,1.8s1.41,1.48,2.45,2.29c1.05,0.82,0.68,2.38,2.39,4.1
		c1.71,1.71,10.79,2.68,16.67,6.11c5.88,3.42-9.31-0.45-9.31-0.45c-7.9-2.09-10.27-3.15-10.27-3.15c-2.53,0.5-10.05-1.39-12.2-4.74
		c-2.16-3.35,2.45-5.96,4.69-8.49c2.23-2.53,7.08-2.61,11.02-2.45c3.95,0.15,9.23-5.88,10.64-7.08c1.42-1.2,0.6-3.35,0.6-3.35
		s2.46-1.49,5.6-8.26c3.14-6.77,14.06-9.98,20.16-11.76C219.66,292.08,220.7,302.5,217.65,307.2z"/>
	<path class="st0" d="M214.2,258.36c0.32,6.11,0.72,8.05,0.72,8.05s1.62,3.13-0.32,8.18c-1.93,5.07-0.39,7.82-0.39,7.82
		s2.77,1.26-5.34,4.23c-8.11,2.98-19.65,13.62-22.55,17.8c-2.9,4.17-3.65-2.23-2.08-6.7c1.56-4.47,6.63-15.7,10.71-20.47
		c4.1-4.77,11.91-17.43,13.1-20.33C209.23,254.04,213.87,252.26,214.2,258.36z"/>
	<path class="st0" d="M173.57,216.97c2.74,4.85,1.68,5.02,0.51,7.92c-1.18,2.91-3.63,6.31-1.73,17.87c1.16,7.01,1.38,8.49,1.38,8.58
		c-0.02-0.05-0.1-0.48-0.1-0.48s-0.95,4.91,1.9,9.61c2.84,4.69-0.45,8.32,3.23,13.62c3.69,5.3,0.73,14.91,0.73,14.91
		s-0.39,6.47-0.39,9.82c0,3.35-2.51,2.9-1.56,4.53c0.95,1.62,4.52,0.73,4.13,6.42c-0.38,5.69-2.12,9.99-5.8,9.94
		c-3.69-0.06-10.72,1.24-16.47,9.14c0,0-3.51,6.88-5.58,2.42c-2.08-4.47-5.65-26.52-7.61-30.04c-1.95-3.52-0.05-8.65,3.13-11.61
		c3.19-2.96,10.11-5.91,10.95-19.53c0.83-13.62,2.84-21.89,5.8-33.95C169.05,224.06,170.84,212.11,173.57,216.97z"/>
	<path class="st0" d="M156.71,261.41c0,0,1.9,9.71-1.89,14.96c-3.8,5.25-10.33,12.46-10.72,13.68c-0.39,1.23-2.85-7.37,4.19-17.14
		C155.32,263.14,156.05,258.29,156.71,261.41z"/>
	<path class="st0" d="M162.52,231.37c-1.01,9.83-10.5,29.1-10.5,29.1s-9.71,15.68-11.39,22.27c-1.68,6.59-0.23,11.06,1.78,17.53
		c2.01,6.48,6.81,25.57,6.81,25.57s2.12,8.49-2.34,2.23c-4.47-6.25-3.53-6.03-3.53-6.03s-6.64-10.83-10.32-21.66
		c-3.69-10.83-8.26-16.36-8.82-20.36c-0.56-3.99,4.29-13.37,9.58-19.06c5.27-5.69,19.35-21.44,22.13-26.13
		C158.72,230.15,163.52,221.55,162.52,231.37z"/>
	<path class="st0" d="M90.76,275.78c0,0,4.1,4.35,4.24,4.39c0.15,0.04,0.29,0.77,3.31,4.46c3.02,3.69,18.31,11.84,23,16.08
		c4.69,4.24,11.72,11.72,11.72,11.72s11.84,18.31,12.39,28.81c0.55,10.5-6.8-1.1-6.8-1.1c-2.14-2.93-17.81-18.66-17.81-18.66
		s0.11-1.34-4.3-3.79c-4.41-2.46-9.71-7.6-9.71-7.6s-5.59-5.51-14.1-5.55c-8.32-0.04-8.42-2.59-8.42-2.72
		c-1.19-15.45-7.96-27.5-9.97-30.86c-2.01-3.35,3.57-3.69,6.81-6.11C84.36,262.45,90.76,275.78,90.76,275.78z"/>
	<path class="st0" d="M70.25,302.36c10.57,1.49,13.32,4.47,18.02,4.76c4.69,0.29,11.54,0.15,18.31,6.25
		c6.77,6.11,19.65,15.41,24.79,22.78c5.14,7.37,12.51,12.65,12.44,17.2c-0.08,4.54-7.9,12.72-10.95,12.58
		c-3.05-0.15,1.34-3.27-1.72-3.5c-3.05-0.23-3.79,2.46-6.17,0.89c-2.38-1.56,0.52-4.02-2.83-4.54c-3.34-0.52-7.44,0.23-10.34-1.86
		c-2.91-2.09-14.82-9.61-23.08-10.35c-8.26-0.74-24.71-0.7-35.14,0.99c-10.42,1.7-12.87,2.67-12.13-1.91
		c0.74-4.59,4.24-5.25,4.32-8.23c0.08-2.98,10.19-2.82,23.6-2.75c13.4,0.08,18.83,1.12,25,1.64c6.18,0.52,16.23,1.2,19.51,3.65
		c3.28,2.46,11.24,7.08,11.92,2.09c0,0-0.53-4.17-5.88-4.69c-5.36-0.53-10.5-0.6-14.52-3.06c-4.03-2.45-18.24-10.13-19.36-10.64
		c-1.12-0.52-2.09,0-2.09,0l-1.86-3.05c0,0-0.52,1.49-2.53,0c-2.01-1.49-12.2-5.96-17.19-7.52c-4.99-1.57-6.93-4.32-5.88-5.51
		C57.52,306.37,59.68,300.87,70.25,302.36z"/>
	<path class="st0" d="M92.14,350.89c5.72,1.26,18.39,8.49,18.39,8.49c1.71,1.93,4.69,1.04,7.29,4.31c2.61,3.27-23.9,1.49-36.4,0.89
		c-12.51-0.59-24.04,2.75-27.02,4.02c-2.98,1.27-5.06-1.48-4.47-3.49c0.6-2.02-1.49-5.36-3.5-8.94c-2.01-3.57,0.97-4.39,4.62-3.94
		c3.65,0.44,9.9-1.27,16.6-2.31C74.34,348.88,86.41,349.63,92.14,350.89z"/>
	<path class="st0" d="M129.5,368.46c-2.68,3.35-12.13,8.42-14.89,8.19c-2.75-0.23-5.2,0.55-9.3,1.31
		c-4.1,0.76-33.94,12.09-33.94,12.09s-8.79,4.69-13.4-1.49c-4.62-6.18-6.41-9.15-7.74-11.31c-1.34-2.17-1.12-4.03,4.46-4.92
		c5.59-0.89,16.08-4.09,19.51-4.02c3.43,0.08,21.22,0.97,28.44,0c7.21-0.97,17.42,1.94,20.09-0.97
		C125.42,364.44,132.19,365.11,129.5,368.46z"/>
	<path class="st0" d="M46.28,379.26c2.31,4.39,6.4,8.04,6.4,8.04s9.68,7.15,4.24,8.18c-5.43,1.05-6.4,2.23-9.01,2.83
		c-2.61,0.6-2.61-1.04-2.53-4.17s-1.41-6.11-3.65-6.85c-2.23-0.74-3.95-2.75-2.69-4.32C40.33,381.41,43.97,374.86,46.28,379.26z"/>
	<path class="st0" d="M132.59,376.53c0.56,1.24-5.02,2.69-7.15,3.58c-2.12,0.89-5.35,5.24-5.58,8.6
		c-0.23,3.35,10.38,19.88,13.51,25.01c3.13,5.14-6.92,8.49-10.38,13.73c-3.46,5.25-6.81,10.16-6.81,10.16s-3.91,0.56-2.79,5.15
		c1.12,4.58,5.03-0.01,8.37-7.16c3.35-7.15,9.83-12.4,9.83-12.4s2.57-4.69,5.03,0.45c2.45,5.14,1.78,22.33,1.78,22.33
		s-4.91,0.34-8.28,4.8c-3.36,4.47-10.7,6.48-14.5,6.25c-3.8-0.23-13.29,3.8-16.08,3.96c-2.78,0.16-12.28-1.39-15.41-0.27
		c-3.13,1.12-7.37-1.56-7.37-1.56s0.23-3.69-7.48-15.26c-7.7-11.58-12.61-6.63-12.51-11.99c0.12-5.36,16.53-21.33,22.34-25.45
		c5.8-4.14,0,4.58-4.36,8.04c-4.35,3.46,2.23,16.3,3.91,20.77c1.68,4.46,5.69,2.79,8.26,5.36s0.45-2.69,7.81,0.77
		c7.37,3.47,18.09,2.35,14.18,2.23c-3.9-0.11-16.36-5.69-16.36-5.69s-3.18,1.9-3.96,0c-0.78-1.89-7.48-3.69-7.48-3.69
		s-4.03-10.94-3.35-16.53c0.67-5.58,8.37-9.94,11.27-15.41c2.91-5.47,7.6-4.02,13.18-11.16c5.58-7.15,25.23-15.41,25.23-15.41
		S132.04,375.31,132.59,376.53z"/>
	<path class="st0" d="M166.21,374.75c9.38,9.49,12.72,17.64,15.24,24.23c2.52,6.59-9.44,13.85-11.22,19.77
		c-1.79,5.91,4.99,19.75,0,21.1c-5,1.34-13.07,6.03-16.41,10.83c-3.34,4.8-4.48,4.47-6.16,3.02c-1.67-1.46-0.89-8.71-0.96-15.63
		c-0.07-6.93-6.52-22.67-10.31-26.13c-3.8-3.46-1.12-5.92,0.56-7.04c1.68-1.12,1.78-5.03,4.65-12.46c2.86-7.44,4.51-6.97,5.63-5.74
		c1.12,1.23,3.46,11.16,3.53,18.65c0.07,7.48,4.63,11.72,7.53,7.7c2.9-4.02-4.58-3.91-3.91-12.84c0.67-8.94-0.33-8.15-2.68-13.97
		c-2.35-5.8,0.44-14.07,0.44-14.07C153.45,362.02,156.83,365.26,166.21,374.75z"/>
	<path class="st0" d="M141.6,380.22c0,0-0.74,2.23-3.12,5.25c-2.37,3.01-3.1,10.5-4.77,16.19c-1.67,5.69-3.01-0.68-5.69-5.59
		c-2.68-4.91,1.12-7.37,1.12-7.37l8.61-8.49C143.31,376.24,141.6,380.22,141.6,380.22z"/>
	<path class="st0" d="M356.63,353.73c8.19,0.15,31.49-0.08,45.94-1.65c14.44-1.56,14.96,2.01,29.25,0.97
		c14.3-1.04,10.8,0.45,23.38,0.23c12.59-0.23,34.02,2.3,39.38,2.38c5.36,0.08,21.72-0.42,26.96,2.09
		c4.79,2.29,40.78-0.53,46.97,0.44c6.18,0.97,44.73,1.64,44.73,1.64s57.4,0.45,62.61-1.04c5.2-1.49,0.37,4.76-3.35,5.66
		c-3.72,0.89-67.82,1.49-73.03,1.41c-5.21-0.07-41.83-0.15-46.22-1.41c-4.39-1.26-7.89-0.81-13.33-0.29
		c-5.43,0.52-10.35-1.64-18.16-1.12c-7.81,0.52-62.68-5.44-80.7-3.87c-18.02,1.56-17.5,0-23.52-0.08c-6.03-0.07-8.78,1.34-12.8,1.2
		c-4.02-0.15-13.56-2.83-24.12-1.41c-10.57,1.41-16.38,0-16.6,0c-0.22,0-4.99-1.05-8.33,1.71c-3.35,2.75-11.84-1.12-16.15,1.12
		c-4.32,2.23-3.48-1.56-7.73-0.81c-4.25,0.74-15.35,3.05-19.29,2.68c-3.95-0.37-16.08-3.17-26.5-0.13c0,0-2.9,2.07-7.08,1.91
		c-4.17-0.15-1.56-2.19,4.32-7.67c5.88-5.5-5.88-8.92,8.18-5.5c14.08,3.42,34.84,5.66,41.69,3.13c6.85-2.53,8.36-1.87,13.33-5.43
		C351.4,346.29,348.44,353.57,356.63,353.73z"/>
</g>
</svg>
